<?xml version="1.0" encoding="UTF-8"?>
<svg width="204px" height="32px" viewBox="0 0 204 32" version="1.1" xmlns="http://www.w3.org/2000/svg" xmlns:xlink="http://www.w3.org/1999/xlink">
    <!-- Generator: sketchtool 52.5 (67469) - http://www.bohemiancoding.com/sketch -->
    <title>469FE025-3E9D-489E-B17D-8F8BB8EBEE5F</title>
    <desc>Created with sketchtool.</desc>
    <g id="Page-1" stroke="none" stroke-width="1" fill="none" fill-rule="evenodd">
        <g id="1.-Homepage" transform="translate(-51.000000, -47.000000)">
            <g id="Group" transform="translate(51.000000, 47.000000)">
                <path d="M66.9171975,14.1505902 C66.9171975,9.82454352 70.1825308,6.49681529 74.7165605,6.49681529 C78.5226497,6.49681529 80.4360934,8.47265393 80.4360934,8.47265393 L78.6890361,11.1972314 C78.6890361,11.1972314 77.1707601,9.82454352 75.0701316,9.82454352 C71.9503864,9.82454352 70.68169,11.8211805 70.68169,14.0258004 C70.68169,16.8543694 72.6367304,18.5390318 74.9453418,18.5390318 C76.6923992,18.5390318 77.9610955,17.4575202 77.9610955,17.4575202 L77.9610955,16.3136136 L75.8604671,16.3136136 L75.8604671,13.2146667 L81.1848323,13.2146667 L81.1848323,21.6171805 L78.1482803,21.6171805 L78.1482803,21.2012144 C78.1482803,20.8892399 78.1690786,20.5772654 78.1690786,20.5772654 L78.127482,20.5772654 C78.127482,20.5772654 76.6923992,21.8667601 74.2174013,21.8667601 C70.4113121,21.8667601 66.9171975,19.0173928 66.9171975,14.1505902 Z M82.7447049,16.2512187 C82.7447049,13.1106752 84.8661316,10.6564756 88.3186497,10.6564756 C91.4799915,10.6564756 93.2686454,12.8610955 93.2686454,15.8352527 C93.2686454,16.1888238 93.1854522,16.9583609 93.1854522,16.9583609 L86.4260042,16.9583609 C86.6963822,18.2686539 87.7778938,18.8718047 88.9218004,18.8718047 C90.4608747,18.8718047 91.8751592,17.790293 91.8751592,17.790293 L93.2062505,20.3068875 C93.2062505,20.3068875 91.4799915,21.8667601 88.6306242,21.8667601 C84.8037367,21.8667601 82.7447049,19.100586 82.7447049,16.2512187 Z M86.5091975,14.8993291 L89.649741,14.8993291 C89.649741,14.0881953 89.0881868,13.3602548 88.2354565,13.3602548 C87.1955414,13.3602548 86.6963822,14.1089936 86.5091975,14.8993291 Z M95.0780977,17.6655032 L95.0780977,6.7463949 L98.6762038,6.7463949 L98.6762038,17.1871423 C98.6762038,18.206259 98.8633885,18.5598301 99.6745223,18.5598301 C99.9033036,18.5598301 100.111287,18.5390318 100.111287,18.5390318 L100.111287,21.6587771 C100.111287,21.6587771 99.6121274,21.721172 99.0297749,21.721172 C97.1163312,21.721172 95.0780977,21.2636093 95.0780977,17.6655032 Z M101.172,16.2512187 C101.172,13.1106752 103.293427,10.6564756 106.745945,10.6564756 C109.907287,10.6564756 111.695941,12.8610955 111.695941,15.8352527 C111.695941,16.1888238 111.612747,16.9583609 111.612747,16.9583609 L104.853299,16.9583609 C105.123677,18.2686539 106.205189,18.8718047 107.349096,18.8718047 C108.88817,18.8718047 110.302454,17.790293 110.302454,17.790293 L111.633546,20.3068875 C111.633546,20.3068875 109.907287,21.8667601 107.057919,21.8667601 C103.231032,21.8667601 101.172,19.100586 101.172,16.2512187 Z M104.936493,14.8993291 L108.077036,14.8993291 C108.077036,14.0881953 107.515482,13.3602548 106.662752,13.3602548 C105.622837,13.3602548 105.123677,14.1089936 104.936493,14.8993291 Z M112.860645,16.2512187 C112.860645,13.3810531 114.982072,10.6564756 118.829758,10.6564756 C121.74152,10.6564756 123.09341,12.2787431 123.09341,12.2787431 L121.575134,14.6913461 C121.575134,14.6913461 120.535219,13.651431 119.058539,13.651431 C117.353079,13.651431 116.500348,14.9409257 116.500348,16.2096221 C116.500348,17.4783185 117.373877,18.8718047 119.183329,18.8718047 C120.680807,18.8718047 122.11589,17.58231 122.11589,17.58231 L123.426183,20.0989045 C123.426183,20.0989045 121.824713,21.8667601 118.829758,21.8667601 C115.00287,21.8667601 112.860645,19.2045775 112.860645,16.2512187 Z M124.341308,16.2512187 C124.341308,13.1106752 126.462735,10.6564756 129.915253,10.6564756 C133.076594,10.6564756 134.865248,12.8610955 134.865248,15.8352527 C134.865248,16.1888238 134.782055,16.9583609 134.782055,16.9583609 L128.022607,16.9583609 C128.292985,18.2686539 129.374497,18.8718047 130.518403,18.8718047 C132.057478,18.8718047 133.471762,17.790293 133.471762,17.790293 L134.802854,20.3068875 C134.802854,20.3068875 133.076594,21.8667601 130.227227,21.8667601 C126.40034,21.8667601 124.341308,19.100586 124.341308,16.2512187 Z M128.1058,14.8993291 L131.246344,14.8993291 C131.246344,14.0881953 130.68479,13.3602548 129.832059,13.3602548 C128.792144,13.3602548 128.292985,14.1089936 128.1058,14.8993291 Z M136.820289,21.6171805 L136.820289,6.7463949 L140.418395,6.7463949 L140.418395,14.4417665 L141.437512,14.4417665 L143.558938,10.9060552 L147.469019,10.9060552 L144.328476,15.7728577 L144.328476,15.8144544 L147.905783,21.6171805 L143.808518,21.6171805 L141.541503,17.4575202 L140.418395,17.4575202 L140.418395,21.6171805 L136.820289,21.6171805 Z M158.388127,21.6171805 L152.959771,6.99597452 L154.498845,6.99597452 L158.554514,18.1022675 C158.824892,18.8510064 159.116068,19.994913 159.116068,19.994913 L159.157665,19.994913 C159.157665,19.994913 159.448841,18.8510064 159.719219,18.1022675 L163.774887,6.99597452 L165.313962,6.99597452 L159.885605,21.6171805 L158.388127,21.6171805 Z M166.416272,18.7678132 C166.416272,15.2321019 171.012696,15.1489087 172.822149,15.1489087 L173.404501,15.1489087 L173.404501,14.8785308 C173.404501,12.8610955 172.302191,12.1747516 170.804713,12.1747516 C169.078454,12.1747516 167.851355,13.1730701 167.851355,13.1730701 L167.185809,12.0915584 C167.185809,12.0915584 168.558497,10.9060552 170.908705,10.9060552 C173.425299,10.9060552 174.818786,12.2995414 174.818786,14.9201274 L174.818786,21.6171805 L173.466896,21.6171805 L173.466896,20.4732739 C173.466896,19.9533163 173.508493,19.5997452 173.508493,19.5997452 L173.466896,19.5997452 C173.466896,19.5997452 172.593367,21.8667601 169.972781,21.8667601 C168.225724,21.8667601 166.416272,20.8476433 166.416272,18.7678132 Z M167.872153,18.68462 C167.872153,19.6621401 168.64169,20.6604586 170.201563,20.6604586 C172.1982,20.6604586 173.404501,18.5806285 173.404501,16.7711762 L173.404501,16.3136136 L172.80135,16.3136136 C171.158285,16.3136136 167.872153,16.3760085 167.872153,18.68462 Z M178.084119,21.6171805 L178.084119,11.1556348 L179.477605,11.1556348 L179.477605,13.0066837 C179.477605,13.4642463 179.436008,13.8386157 179.436008,13.8386157 L179.477605,13.8386157 C179.976764,12.2579448 181.141469,11.0516433 182.784535,11.0516433 C183.075711,11.0516433 183.346089,11.1140382 183.346089,11.1140382 L183.346089,12.5075244 C183.346089,12.5075244 183.09651,12.4659278 182.826132,12.4659278 C181.349452,12.4659278 180.247142,13.6306327 179.78958,15.169707 C179.581597,15.8352527 179.498403,16.5423949 179.498403,17.2079406 L179.498403,21.6171805 L178.084119,21.6171805 Z M185.384323,19.1421826 L185.384323,6.99597452 L186.798607,6.99597452 L186.798607,18.8302081 C186.798607,20.202896 187.422556,20.410879 187.963312,20.410879 C188.150497,20.410879 188.316883,20.3900807 188.316883,20.3900807 L188.316883,21.6587771 C188.316883,21.6587771 188.067304,21.7003737 187.796926,21.7003737 C186.923397,21.7003737 185.384323,21.4299958 185.384323,19.1421826 Z M190.625495,21.6171805 L190.625495,11.1556348 L192.039779,11.1556348 L192.039779,21.6171805 L190.625495,21.6171805 Z M195.450701,21.6171805 L195.450701,6.99597452 L196.864985,6.99597452 L196.864985,15.1489087 L198.528849,15.1489087 L201.669393,11.1556348 L203.374854,11.1556348 L199.735151,15.7104628 L199.735151,15.7520594 L203.728425,21.6171805 L202.043762,21.6171805 L198.549648,16.3760085 L196.864985,16.3760085 L196.864985,21.6171805 L195.450701,21.6171805 Z" id="Gelecek-Varlık" fill="#31405C"></path>
                <path d="M20.7983015,0 C22.4837151,0 23.7760532,0.443469787 24.6753158,1.33040936 L24.6752978,1.33042758 C24.9390969,1.59061167 24.9420274,2.01538395 24.6818433,2.27918301 L24.6778968,2.28315109 L17.8420913,9.0992569 C17.436886,9.49767185 17.3298332,10.1667532 17.5904989,10.6717091 C18.2196985,11.8679939 18.934987,12.9917194 19.8757962,13.8795117 C20.8166053,14.7672637 22.0658707,15.4309979 23.4819533,15.4309979 C25.8973855,15.4309979 28.8431587,13.977142 32.3192728,11.0694302 C32.5961111,10.8378696 33.0065338,10.8668047 33.2481391,11.1349216 L42.430873,21.3252847 C42.6789181,21.6005479 42.6568534,22.024773 42.3815901,22.2728181 C42.3613151,22.2910883 42.339944,22.3081044 42.3175962,22.3237714 L32.9795648,28.8702229 C32.0601732,29.5481805 31.0519111,30.2964832 30.0862527,30.7781316 C29.1261702,31.2008739 27.7884825,31.5329087 26.836518,31.5329087 C26.3647945,31.5329087 25.4052856,31.2470662 24.4883227,30.8410297 C24.1889325,30.7085011 24.0536644,30.3583616 24.186193,30.0589714 C24.2048331,30.0168622 24.2283162,29.9770684 24.2561672,29.9403947 C24.870816,29.13104 25.2626911,28.2222102 25.4317941,27.2139066 C25.5230716,26.6696493 25.3842196,26.0501745 24.9286093,25.7253185 L11.5103503,16.3325372 C11.2834543,16.1788981 11.0085973,16.0971473 10.7346072,16.1019108 C8.4015081,16.1019108 6.27040909,16.9323326 4.34131019,18.5931761 L4.34131681,18.5931838 C4.11370067,18.7891482 3.783576,18.8099607 3.53315099,18.644134 C2.53572439,17.9836572 1.59957763,17.426856 0.724710686,16.9737305 C0.279511131,16.7431495 0,16.2836035 0,15.7822352 L0,1.38107171 C0,1.01053672 0.30037796,0.710158759 0.670912951,0.710158759 C0.783045536,0.710158759 0.89338979,0.738263838 0.991859761,0.791905067 L5.38826964,3.18683652 C5.69334248,3.34969393 6.06255192,3.38815066 6.39463907,3.29166667 C12.6637872,1.51233843 16.0359838,0 20.7983015,0 Z M33.5456476,0 C37.5595654,0.0069104034 42.4450428,1.88302454 47.257431,3.29166667 C47.5956838,3.39380645 47.9741156,3.35520212 48.2847665,3.18683652 L52.6811763,0.791905067 C53.0065641,0.614651038 53.4140358,0.734737148 53.5912898,1.0601249 C53.644931,1.15859487 53.6730361,1.26893913 53.6730361,1.38107171 L53.6730433,15.6122566 C53.6730433,16.1695001 53.3286353,16.6687506 52.8077107,16.8666343 C50.6707168,17.6784142 48.2820104,18.7691917 45.6415915,20.1389671 L45.6415788,20.1389426 C45.37029,20.2796796 45.0381696,20.2192771 44.8338053,19.9920333 L34.1326964,8.09288747 C33.6608218,7.58788459 33.2734488,7.3733803 32.8747346,7.38004246 C32.4914508,7.38675159 32.1018509,7.59676076 31.763535,7.92515924 C29.7798729,9.87167898 26.1612583,12.7473461 23.4819533,12.7473461 C22.8361989,12.7473461 22.3168821,12.4921442 21.7208068,11.9296709 C21.4972541,11.7187209 21.1903166,11.2973774 20.7999944,10.6656406 C20.6366839,10.4013295 20.6762132,10.0594693 20.8955298,9.83939905 L26.6268577,4.0883758 C27.6184235,3.19331754 28.5245323,2.05381885 29.5201699,1.29989384 C30.8144555,0.328861401 32.0575935,0 33.5456476,0 Z M10.7958375,19.119924 L21.9809215,26.9514213 C22.2650972,27.150379 22.3507309,27.5331648 22.1784298,27.8342499 C21.8634307,28.3846905 21.5933731,28.7934408 21.3682569,29.0605008 C20.4645482,30.1325891 19.30148,30.8619958 18.1146497,30.8619958 C16.5565691,30.8619958 16.146968,30.6557236 14.8649151,29.7507962 L5.10952512,22.8704703 C4.80674903,22.656898 4.73440829,22.2383196 4.94796123,21.9355299 C4.95244266,21.9291758 4.95703422,21.9229001 4.96173383,21.9167056 C5.08895039,21.7490238 5.19534201,21.6147569 5.28090867,21.5139047 C6.37822149,20.2205699 7.56551325,19.456151 8.80456968,19.089026 C9.05664817,19.0143366 9.40532914,18.9476018 9.85061259,18.8888214 C10.1835053,18.8448705 10.520777,18.927334 10.7958375,19.119924 Z" id="Shape" fill="#F5A623" fill-rule="nonzero"></path>
            </g>
        </g>
    </g>
</svg>